#!OML:ASF G:\JayActor3\Patient Classification 1\Patient 1\Session 6\male.ASF
:FULLY-SPECIFIED
:DEGREES
2537
root -5.04269 15.6354 -7.55846 17.2426 0.908785 -3.72318
lowerback 39.8977 -1.06817 2.15269
upperback 6.85675 -0.342344 0.710394
thorax -11.7266 -0.220393 -0.207558
lowerneck -10.274 -0.10912 2.64259
upperneck 12.5917 -0.929416 2.51391
head 5.49369 -0.148646 0.284154
rclavicle 2.18663e-015 -7.55382e-015
rhumerus -38.5866 9.97758 -86.5896
rradius 61.5969
rwrist -1.69799
rhand -21.4572 -3.48317
rfingers 7.12502
rthumb 4.9329 -33.4058
lclavicle 2.18663e-015 -7.55382e-015
lhumerus -39.7445 -14.5519 82.661
lradius 68.5875
lwrist 36.9868
lhand -28.9235 3.04334
lfingers 7.12502
lthumb -2.2778 33.0109
rfemur -56.2479 2.3732 28.5331
rtibia 52.277
rfoot -16.2534 -9.4269
rtoes -0.210301
lfemur -79.4855 10.7197 -18.021
ltibia 112.383
lfoot -12.4102 -4.92393
ltoes -10.2165
2538
root -5.07222 15.5742 -7.50066 16.6142 0.96767 -3.78674
lowerback 40.4721 -1.07288 1.97235
upperback 6.88595 -0.404358 0.716912
thorax -11.8839 -0.243483 -0.0749348
lowerneck -10.8171 -0.0301806 2.76502
upperneck 13.2817 -0.868827 2.38888
head 5.80184 -0.105375 0.229957
rclavicle 7.15625e-015 -1.09332e-014
rhumerus -38.4795 9.96556 -86.6116
rradius 61.6536
rwrist -1.725
rhand -21.6345 -3.52786
rfingers 7.12502
rthumb 4.76174 -33.4544
lclavicle 7.15625e-015 -1.09332e-014
lhumerus -39.8193 -14.5586 82.4294
lradius 68.9831
lwrist 37.017
lhand -28.7467 3.02206
lfingers 7.12502
lthumb -2.10704 32.9914
rfemur -56.0124 2.36668 28.7969
rtibia 53.4696
rfoot -16.8082 -9.59258
rtoes -0.129445
lfemur -81.1556 11.0913 -18.0692
ltibia 113.966
lfoot -12.8238 -5.07909
ltoes -11.0669
2539
root -5.09945 15.5144 -7.44321 15.9798 1.05176 -3.81121
lowerback 41.0569 -1.10433 1.8219
upperback 6.92219 -0.490713 0.7057
thorax -12.0332 -0.27753 0.0339458
lowerneck -11.2825 0.0532127 2.87258
upperneck 13.8636 -0.795344 2.27757
head 6.0646 -0.0586434 0.183741
rclavicle 1.15295e-014 -1.31198e-014
rhumerus -38.3693 9.90673 -86.6473
rradius 61.7276
rwrist -1.75008
rhand -21.849 -3.58981
rfingers 7.12502
rthumb 4.55455 -33.5208
lclavicle 1.15295e-014 -1.31198e-014
lhumerus -39.8695 -14.6034 82.2064
lradius 69.3311
lwrist 36.9623
lhand -28.5577 2.98585
lfingers 7.12502
lthumb -1.92454 32.9569
rfemur -55.7516 2.36606 28.9987
rtibia 54.6256
rfoot -17.3658 -9.84261
rtoes -0.0840066
lfemur -82.7117 11.296 -18.1957
ltibia 115.211
lfoot -13.1651 -5.19894
ltoes -11.6892
2540
root -5.12431 15.4563 -7.38617 15.3451 1.16369 -3.7854
lowerback 41.6468 -1.16125 1.69255
upperback 6.96434 -0.603004 0.676488
thorax -12.1738 -0.322891 0.124283
lowerneck -11.6952 0.138661 2.96829
upperneck 14.3694 -0.714504 2.17909
head 6.29581 -0.0101671 0.144363
rclavicle 5.96354e-015 -3.77691e-015
rhumerus -38.2608 9.81828 -86.6966
rradius 61.8219
rwrist -1.78216
rhand -22.0514 -3.65531
rfingers 7.12502
rthumb 4.35915 -33.5904
lclavicle 5.96354e-015 -3.77691e-015
lhumerus -39.8979 -14.677 81.9962
lradius 69.6348
lwrist 36.8642
lhand -28.3946 2.92312
lfingers 7.12502
lthumb -1.76699 32.8955
rfemur -55.4734 2.36548 29.1224
rtibia 55.7522
rfoot -17.947 -10.1377
rtoes -0.0464512
lfemur -84.1375 11.2998 -18.4056
ltibia 116.112
lfoot -13.4454 -5.24552
ltoes -12.0603
2541
root -5.14709 15.3999 -7.32919 14.7095 1.29874 -3.70801
lowerback 42.2403 -1.23511 1.57495
upperback 7.0131 -0.73393 0.632841
thorax -12.3043 -0.376039 0.201757
lowerneck -12.0802 0.219562 3.04397
upperneck 14.8332 -0.637001 2.1011
head 6.51024 0.0359796 0.114735
rclavicle 1.19271e-015 -3.97569e-016
rhumerus -38.1602 9.70101 -86.7584
rradius 61.9359
rwrist -1.81909
rhand -22.2127 -3.70986
rfingers 7.12502
rthumb 4.20339 -33.6481
lclavicle 1.19271e-015 -3.97569e-016
lhumerus -39.9018 -14.7685 81.7998
lradius 69.8971
lwrist 36.8108
lhand -28.2235 2.8681
lfingers 7.12502
lthumb -1.60178 32.8418
rfemur -55.176 2.36309 29.1684
rtibia 56.8541
rfoot -18.5533 -10.4571
rtoes -0.0620087
lfemur -85.4097 11.1084 -18.6966
ltibia 116.674
lfoot -13.6826 -5.20885
ltoes -12.314
2542
root -5.1685 15.3447 -7.27223 14.0824 1.45514 -3.59097
lowerback 42.8231 -1.31873 1.46537
upperback 7.06873 -0.875347 0.582166
thorax -12.4199 -0.433316 0.272665
lowerneck -12.4476 0.295758 3.10578
upperneck 15.2713 -0.564055 2.03742
head 6.71454 0.079489 0.0918001
rclavicle 1.07344e-014 -9.93923e-015
rhumerus -38.0692 9.56492 -86.8322
rradius 62.0656
rwrist -1.86061
rhand -22.3303 -3.75195
rfingers 7.12502
rthumb 4.08978 -33.6924
lclavicle 1.07344e-014 -9.93923e-015
lhumerus -39.8833 -14.8821 81.6329
lradius 70.1097
lwrist 36.8017
lhand -28.1547 2.80557
lfingers 7.12502
lthumb -1.53532 32.7798
rfemur -54.8695 2.3635 29.1526
rtibia 57.9333
rfoot -19.1838 -10.7877
rtoes -0.134884
lfemur -86.5266 10.7437 -19.0463
ltibia 116.907
lfoot -13.8817 -5.08412
ltoes -12.477
2543
root -5.1888 15.2905 -7.21502 13.4718 1.63011 -3.44961
lowerback 43.3829 -1.40867 1.36933
upperback 7.12981 -1.02 0.529062
thorax -12.5184 -0.491818 0.335747
lowerneck -12.7984 0.366002 3.16336
upperneck 15.6906 -0.497873 1.97873
head 6.91094 0.119262 0.0707638
rclavicle 1.59028e-015 -6.36111e-015
rhumerus -37.993 9.41448 -86.9194
rradius 62.2082
rwrist -1.90999
rhand -22.3896 -3.76883
rfingers 7.12502
rthumb 4.03254 -33.7104
lclavicle 1.59028e-015 -6.36111e-015
lhumerus -39.8493 -15.0245 81.5027
lradius 70.2739
lwrist 36.8633
lhand -28.1057 2.75212
lfingers 7.12502
lthumb -1.48803 32.7267
rfemur -54.5611 2.36206 29.098
rtibia 58.9887
rfoot -19.8321 -11.1185
rtoes -0.269734
lfemur -87.4869 10.2396 -19.4358
ltibia 116.83
lfoot -14.0596 -4.86415
ltoes -12.6037
2544
root -5.20862 15.2372 -7.15757 12.8897 1.81864 -3.29951
lowerback 43.904 -1.49624 1.2836
upperback 7.19481 -1.15742 0.483052
thorax -12.5975 -0.547064 0.398023
lowerneck -13.1314 0.43069 3.21783
upperneck 16.0937 -0.437331 1.92043
head 7.09994 0.155577 0.0499958
rclavicle -4.77083e-015 1.11319e-014
rhumerus -37.9334 9.25897 -87.015
rradius 62.358
rwrist -1.95882
rhand -22.4298 -3.76811
rfingers 7.12502
rthumb 3.99375 -33.7104
lclavicle -4.77083e-015 1.11319e-014
lhumerus -39.8076 -15.1942 81.4234
lradius 70.3894
lwrist 36.9636
lhand -28.0884 2.72271
lfingers 7.12502
lthumb -1.47124 32.6974
rfemur -54.2621 2.36079 29.0286
rtibia 60.0161
rfoot -20.4898 -11.4458
rtoes -0.434938
lfemur -88.2967 9.63079 -19.8376
ltibia 116.459
lfoot -14.2089 -4.56398
ltoes -12.6886
2545
root -5.22819 15.1844 -7.0997 12.3484 2.01771 -3.15055
lowerback 44.369 -1.57966 1.20622
upperback 7.26279 -1.2858 0.448378
thorax -12.6535 -0.598417 0.463967
lowerneck -13.4381 0.49445 3.27592
upperneck 16.4755 -0.375051 1.85191
head 7.2783 0.191264 0.0255935
rclavicle 1.43125e-014 -1.07344e-014
rhumerus -37.8874 9.12027 -87.1188
rradius 62.508
rwrist -2.00609
rhand -22.4597 -3.75246
rfingers 7.12502
rthumb 3.96485 -33.6953
lclavicle 1.43125e-014 -1.07344e-014
lhumerus -39.7733 -15.3932 81.4102
lradius 70.4744
lwrist 37.121
lhand -28.2004 2.75239
lfingers 7.12502
lthumb -1.57947 32.7263
rfemur -53.9875 2.35553 28.9635
rtibia 61.0118
rfoot -21.144 -11.7818
rtoes -0.640847
lfemur -88.9702 8.97327 -20.2468
ltibia 115.815
lfoot -14.3342 -4.2016
ltoes -12.799
2546
root -5.24773 15.1323 -7.04124 11.8588 2.22483 -3.00198
lowerback 44.7634 -1.65455 1.12698
upperback 7.33403 -1.4039 0.429277
thorax -12.6827 -0.645229 0.542525
lowerneck -13.7163 0.558231 3.33193
upperneck 16.8316 -0.308915 1.77691
head 7.44409 0.227198 -0.000143387
rclavicle -8.34896e-015 -1.98785e-015
rhumerus -37.8449 9.01543 -87.2288
rradius 62.6474
rwrist -2.05665
rhand -22.4865 -3.73161
rfingers 7.12502
rthumb 3.93898 -33.6749
lclavicle -8.34896e-015 -1.98785e-015
lhumerus -39.7557 -15.5986 81.4628
lradius 70.5365
lwrist 37.2971
lhand -28.3789 2.80146
lfingers 7.12502
lthumb -1.75186 32.774
rfemur -53.7456 2.33721 28.9084
rtibia 61.9698
rfoot -21.7887 -12.1231
rtoes -0.879178
lfemur -89.5061 8.28839 -20.6545
ltibia 114.908
lfoot -14.4388 -3.77411
ltoes -12.9224
